<mxfile host="app.diagrams.net" modified="2020-12-10T13:11:16.865Z" agent="5.0 (Macintosh; Intel Mac OS X 10_15_6) AppleWebKit/605.1.15 (KHTML, like Gecko) Version/14.0.1 Safari/605.1.15" etag="LTlobfs_Zhyt7T6l1mct" version="14.0.0" type="github">
  <diagram id="wo7btLA05rxmbroQB5kS" name="Page-1">
    <mxGraphModel dx="2013" dy="1964" grid="1" gridSize="10" guides="1" tooltips="1" connect="1" arrows="1" fold="1" page="1" pageScale="1" pageWidth="827" pageHeight="1169" math="0" shadow="0">
      <root>
        <mxCell id="0" />
        <mxCell id="1" parent="0" />
        <mxCell id="NS6Ue5GuABFmyDyCc9gB-55" value="" style="ellipse;shape=cloud;whiteSpace=wrap;html=1;fontSize=11;fontColor=#333333;align=center;fillColor=#f5f5f5;strokeColor=#666666;" parent="1" vertex="1">
          <mxGeometry x="-20" y="-10" width="460" height="160" as="geometry" />
        </mxCell>
        <mxCell id="NS6Ue5GuABFmyDyCc9gB-18" value="" style="rounded=1;whiteSpace=wrap;html=1;fontSize=14;fillColor=#dae8fc;strokeColor=#6c8ebf;" parent="1" vertex="1">
          <mxGeometry x="424" y="50" width="386" height="420" as="geometry" />
        </mxCell>
        <mxCell id="NS6Ue5GuABFmyDyCc9gB-2" value="" style="rounded=1;whiteSpace=wrap;html=1;fontStyle=1;fontSize=13;fillColor=#dae8fc;strokeColor=#6c8ebf;" parent="1" vertex="1">
          <mxGeometry x="35" y="200" width="170" height="60" as="geometry" />
        </mxCell>
        <mxCell id="NS6Ue5GuABFmyDyCc9gB-3" value="" style="rounded=1;whiteSpace=wrap;html=1;fillColor=#dae8fc;strokeColor=#6c8ebf;" parent="1" vertex="1">
          <mxGeometry x="30" y="330" width="157.5" height="95" as="geometry" />
        </mxCell>
        <mxCell id="NS6Ue5GuABFmyDyCc9gB-4" value="" style="rounded=1;whiteSpace=wrap;html=1;fillColor=#d5e8d4;strokeColor=#82b366;" parent="1" vertex="1">
          <mxGeometry x="437" y="80" width="360" height="180" as="geometry" />
        </mxCell>
        <mxCell id="NS6Ue5GuABFmyDyCc9gB-5" value="" style="rounded=1;whiteSpace=wrap;html=1;fillColor=#dae8fc;strokeColor=#6c8ebf;" parent="1" vertex="1">
          <mxGeometry x="255" y="200" width="120" height="60" as="geometry" />
        </mxCell>
        <mxCell id="NS6Ue5GuABFmyDyCc9gB-13" value="&lt;font style=&quot;font-size: 14px;&quot;&gt;namespace:&amp;nbsp;&lt;span style=&quot;font-family: arial, sans-serif; font-size: 14px;&quot;&gt;paas-u200004641-autotest-si-sa&lt;/span&gt;&lt;/font&gt;" style="text;html=1;strokeColor=none;fillColor=none;align=right;verticalAlign=middle;whiteSpace=wrap;rounded=0;fontSize=14;" parent="1" vertex="1">
          <mxGeometry x="497" y="80" width="290" height="20" as="geometry" />
        </mxCell>
        <mxCell id="NS6Ue5GuABFmyDyCc9gB-15" value="" style="rounded=0;whiteSpace=wrap;html=1;fontSize=13;" parent="1" vertex="1">
          <mxGeometry x="457" y="110" width="250" height="140" as="geometry" />
        </mxCell>
        <mxCell id="NS6Ue5GuABFmyDyCc9gB-7" value="Moon UI&lt;br&gt;tcp/8080" style="whiteSpace=wrap;html=1;aspect=fixed;fontSize=10;" parent="1" vertex="1">
          <mxGeometry x="527" y="120" width="50" height="50" as="geometry" />
        </mxCell>
        <mxCell id="NS6Ue5GuABFmyDyCc9gB-8" value="Moon&lt;br&gt;tcp/4444" style="whiteSpace=wrap;html=1;aspect=fixed;fontSize=10;" parent="1" vertex="1">
          <mxGeometry x="470" y="155" width="50" height="50" as="geometry" />
        </mxCell>
        <mxCell id="NS6Ue5GuABFmyDyCc9gB-10" value="Browser POD" style="whiteSpace=wrap;html=1;aspect=fixed;fontSize=10;" parent="1" vertex="1">
          <mxGeometry x="527" y="190" width="50" height="50" as="geometry" />
        </mxCell>
        <mxCell id="NS6Ue5GuABFmyDyCc9gB-11" value="Browser POD" style="whiteSpace=wrap;html=1;aspect=fixed;fontSize=10;" parent="1" vertex="1">
          <mxGeometry x="587" y="190" width="50" height="50" as="geometry" />
        </mxCell>
        <mxCell id="NS6Ue5GuABFmyDyCc9gB-12" value="Browser POD" style="whiteSpace=wrap;html=1;aspect=fixed;fontSize=10;" parent="1" vertex="1">
          <mxGeometry x="647" y="190" width="50" height="50" as="geometry" />
        </mxCell>
        <mxCell id="NS6Ue5GuABFmyDyCc9gB-16" value="Moon Application" style="text;html=1;strokeColor=none;fillColor=none;align=center;verticalAlign=middle;whiteSpace=wrap;rounded=0;fontSize=14;fontColor=#007FFF;" parent="1" vertex="1">
          <mxGeometry x="607" y="130" width="70" height="30" as="geometry" />
        </mxCell>
        <mxCell id="NS6Ue5GuABFmyDyCc9gB-17" value="Minio S3" style="whiteSpace=wrap;html=1;aspect=fixed;fontSize=10;" parent="1" vertex="1">
          <mxGeometry x="727" y="190" width="50" height="50" as="geometry" />
        </mxCell>
        <mxCell id="NS6Ue5GuABFmyDyCc9gB-19" value="&lt;span style=&quot;color: rgb(0, 0, 0); font-size: 16px;&quot;&gt;OKD 3.11 DEV&lt;/span&gt;" style="text;html=1;strokeColor=none;fillColor=none;align=center;verticalAlign=middle;whiteSpace=wrap;rounded=0;fontSize=16;fontColor=#007FFF;fontStyle=1" parent="1" vertex="1">
          <mxGeometry x="552" y="50" width="130" height="20" as="geometry" />
        </mxCell>
        <mxCell id="NS6Ue5GuABFmyDyCc9gB-20" value="" style="rounded=1;whiteSpace=wrap;html=1;fillColor=#d5e8d4;strokeColor=#82b366;" parent="1" vertex="1">
          <mxGeometry x="520" y="270" width="277" height="180" as="geometry" />
        </mxCell>
        <mxCell id="NS6Ue5GuABFmyDyCc9gB-21" value="&lt;font style=&quot;font-size: 14px;&quot;&gt;namespace:&amp;nbsp;&lt;span style=&quot;font-family: arial, sans-serif; font-size: 14px;&quot;&gt;paas-???-cio-si-sa&lt;/span&gt;&lt;/font&gt;" style="text;html=1;strokeColor=none;fillColor=none;align=right;verticalAlign=middle;whiteSpace=wrap;rounded=0;fontSize=14;" parent="1" vertex="1">
          <mxGeometry x="532" y="420" width="210" height="20" as="geometry" />
        </mxCell>
        <mxCell id="NS6Ue5GuABFmyDyCc9gB-22" value="Target web application for running autotests" style="rounded=0;whiteSpace=wrap;html=1;fontSize=16;" parent="1" vertex="1">
          <mxGeometry x="592" y="330" width="135" height="70" as="geometry" />
        </mxCell>
        <mxCell id="NS6Ue5GuABFmyDyCc9gB-24" value="" style="endArrow=classic;html=1;fontSize=16;fontColor=#000000;exitX=0.5;exitY=1;exitDx=0;exitDy=0;fillColor=#ffe6cc;strokeColor=#d79b00;" parent="1" source="NS6Ue5GuABFmyDyCc9gB-10" target="NS6Ue5GuABFmyDyCc9gB-22" edge="1">
          <mxGeometry width="50" height="50" relative="1" as="geometry">
            <mxPoint x="501" y="250" as="sourcePoint" />
            <mxPoint x="590.75" y="340" as="targetPoint" />
          </mxGeometry>
        </mxCell>
        <mxCell id="NS6Ue5GuABFmyDyCc9gB-25" value="" style="endArrow=classic;html=1;fontSize=16;fontColor=#000000;entryX=0.593;entryY=-0.033;entryDx=0;entryDy=0;exitX=0.5;exitY=1;exitDx=0;exitDy=0;entryPerimeter=0;fillColor=#ffe6cc;strokeColor=#d79b00;" parent="1" source="NS6Ue5GuABFmyDyCc9gB-11" target="NS6Ue5GuABFmyDyCc9gB-22" edge="1">
          <mxGeometry width="50" height="50" relative="1" as="geometry">
            <mxPoint x="562" y="250" as="sourcePoint" />
            <mxPoint x="624.5" y="340" as="targetPoint" />
          </mxGeometry>
        </mxCell>
        <mxCell id="NS6Ue5GuABFmyDyCc9gB-26" value="" style="endArrow=classic;html=1;fontSize=16;fontColor=#000000;entryX=0.75;entryY=0;entryDx=0;entryDy=0;exitX=0.5;exitY=1;exitDx=0;exitDy=0;fillColor=#ffe6cc;strokeColor=#d79b00;" parent="1" source="NS6Ue5GuABFmyDyCc9gB-12" target="NS6Ue5GuABFmyDyCc9gB-22" edge="1">
          <mxGeometry width="50" height="50" relative="1" as="geometry">
            <mxPoint x="622" y="250" as="sourcePoint" />
            <mxPoint x="658.25" y="340" as="targetPoint" />
          </mxGeometry>
        </mxCell>
        <mxCell id="NS6Ue5GuABFmyDyCc9gB-27" value="" style="endArrow=classic;html=1;fontSize=16;fontColor=#000000;exitX=1;exitY=0.25;exitDx=0;exitDy=0;entryX=0.5;entryY=0;entryDx=0;entryDy=0;fillColor=#ffe6cc;strokeColor=#d79b00;" parent="1" source="NS6Ue5GuABFmyDyCc9gB-15" target="NS6Ue5GuABFmyDyCc9gB-17" edge="1">
          <mxGeometry width="50" height="50" relative="1" as="geometry">
            <mxPoint x="467" y="130" as="sourcePoint" />
            <mxPoint x="517" y="80" as="targetPoint" />
          </mxGeometry>
        </mxCell>
        <mxCell id="NS6Ue5GuABFmyDyCc9gB-30" value="Video, Logs" style="edgeLabel;html=1;align=center;verticalAlign=middle;resizable=0;points=[];fontSize=11;fontColor=#000000;rotation=45;" parent="NS6Ue5GuABFmyDyCc9gB-27" vertex="1" connectable="0">
          <mxGeometry x="0.1333" y="-1" relative="1" as="geometry">
            <mxPoint x="5.25" y="-11.16" as="offset" />
          </mxGeometry>
        </mxCell>
        <mxCell id="NS6Ue5GuABFmyDyCc9gB-33" value="" style="endArrow=classic;html=1;fontSize=14;fontColor=#000000;exitX=0.5;exitY=1;exitDx=0;exitDy=0;entryX=0.5;entryY=0;entryDx=0;entryDy=0;fillColor=#dae8fc;strokeColor=#6c8ebf;" parent="1" source="NS6Ue5GuABFmyDyCc9gB-1" target="NS6Ue5GuABFmyDyCc9gB-2" edge="1">
          <mxGeometry width="50" height="50" relative="1" as="geometry">
            <mxPoint x="325" y="410" as="sourcePoint" />
            <mxPoint x="375" y="360" as="targetPoint" />
          </mxGeometry>
        </mxCell>
        <mxCell id="NS6Ue5GuABFmyDyCc9gB-40" value="&lt;font style=&quot;font-size: 11px&quot;&gt;External code transfer&lt;/font&gt;" style="edgeLabel;html=1;align=center;verticalAlign=middle;resizable=0;points=[];fontSize=14;fontColor=#000000;" parent="NS6Ue5GuABFmyDyCc9gB-33" vertex="1" connectable="0">
          <mxGeometry x="-0.1778" y="-1" relative="1" as="geometry">
            <mxPoint as="offset" />
          </mxGeometry>
        </mxCell>
        <mxCell id="NS6Ue5GuABFmyDyCc9gB-35" value="" style="group" parent="1" vertex="1" connectable="0">
          <mxGeometry x="35" y="50" width="176" height="60" as="geometry" />
        </mxCell>
        <mxCell id="NS6Ue5GuABFmyDyCc9gB-1" value="https://github.com/aerokube/moon-deploy" style="rounded=1;whiteSpace=wrap;html=1;verticalAlign=middle;fontSize=10;" parent="NS6Ue5GuABFmyDyCc9gB-35" vertex="1">
          <mxGeometry width="170" height="60" as="geometry" />
        </mxCell>
        <mxCell id="NS6Ue5GuABFmyDyCc9gB-34" value="Branch: Master" style="text;html=1;strokeColor=none;fillColor=none;align=center;verticalAlign=middle;whiteSpace=wrap;rounded=0;fontSize=10;fontColor=#000000;" parent="NS6Ue5GuABFmyDyCc9gB-35" vertex="1">
          <mxGeometry x="90" y="40" width="86" height="20" as="geometry" />
        </mxCell>
        <mxCell id="NS6Ue5GuABFmyDyCc9gB-38" value="Allure&lt;br&gt;plugin" style="whiteSpace=wrap;html=1;aspect=fixed;fontSize=10;fontColor=#000000;align=center;" parent="1" vertex="1">
          <mxGeometry x="40" y="365" width="40" height="40" as="geometry" />
        </mxCell>
        <mxCell id="NS6Ue5GuABFmyDyCc9gB-39" value="Jenkins DEV" style="text;html=1;strokeColor=none;fillColor=none;align=center;verticalAlign=middle;whiteSpace=wrap;rounded=0;fontSize=14;fontColor=#000000;fontStyle=1" parent="1" vertex="1">
          <mxGeometry x="62.5" y="340" width="90" height="20" as="geometry" />
        </mxCell>
        <mxCell id="NS6Ue5GuABFmyDyCc9gB-41" value="&lt;font style=&quot;font-size: 10px;&quot;&gt;Project Space:U200004641_TSSV&lt;/font&gt;" style="text;html=1;strokeColor=none;fillColor=none;align=center;verticalAlign=middle;whiteSpace=wrap;rounded=0;fontSize=10;fontColor=#000000;" parent="1" vertex="1">
          <mxGeometry x="30" y="240" width="180" height="20" as="geometry" />
        </mxCell>
        <mxCell id="NS6Ue5GuABFmyDyCc9gB-42" value="&lt;span style=&quot;color: rgb(0, 0, 0); font-family: helvetica; font-size: 13px; font-style: normal; font-weight: bold; letter-spacing: normal; text-align: center; text-indent: 0px; text-transform: none; word-spacing: 0px; text-decoration: none; display: inline; float: none;&quot;&gt;GIT ALM КСПД&lt;/span&gt;" style="text;html=1;strokeColor=none;fillColor=none;align=center;verticalAlign=middle;whiteSpace=wrap;rounded=0;fontSize=13;fontColor=#000000;labelBackgroundColor=none;" parent="1" vertex="1">
          <mxGeometry x="70" y="205" width="100" height="20" as="geometry" />
        </mxCell>
        <mxCell id="NS6Ue5GuABFmyDyCc9gB-43" value="" style="endArrow=classic;html=1;fontSize=13;fontColor=#000000;exitX=0.711;exitY=1;exitDx=0;exitDy=0;entryX=0.5;entryY=0;entryDx=0;entryDy=0;exitPerimeter=0;fillColor=#dae8fc;strokeColor=#6c8ebf;" parent="1" source="NS6Ue5GuABFmyDyCc9gB-41" target="NS6Ue5GuABFmyDyCc9gB-45" edge="1">
          <mxGeometry width="50" height="50" relative="1" as="geometry">
            <mxPoint x="235" y="310" as="sourcePoint" />
            <mxPoint x="285" y="260" as="targetPoint" />
          </mxGeometry>
        </mxCell>
        <mxCell id="NS6Ue5GuABFmyDyCc9gB-46" value="Download project build code" style="edgeLabel;html=1;align=center;verticalAlign=middle;resizable=0;points=[];fontSize=11;fontColor=#000000;" parent="NS6Ue5GuABFmyDyCc9gB-43" vertex="1" connectable="0">
          <mxGeometry x="-0.1714" y="1" relative="1" as="geometry">
            <mxPoint as="offset" />
          </mxGeometry>
        </mxCell>
        <mxCell id="NS6Ue5GuABFmyDyCc9gB-45" value="Agent" style="whiteSpace=wrap;html=1;aspect=fixed;fontSize=10;fontColor=#000000;align=center;" parent="1" vertex="1">
          <mxGeometry x="137.5" y="365" width="40" height="40" as="geometry" />
        </mxCell>
        <mxCell id="NS6Ue5GuABFmyDyCc9gB-51" value="" style="group" parent="1" vertex="1" connectable="0">
          <mxGeometry x="230" y="50" width="176" height="60" as="geometry" />
        </mxCell>
        <mxCell id="NS6Ue5GuABFmyDyCc9gB-52" value="https://quay.io/organization/aerokube" style="rounded=1;whiteSpace=wrap;html=1;verticalAlign=middle;fontSize=10;" parent="NS6Ue5GuABFmyDyCc9gB-51" vertex="1">
          <mxGeometry width="170" height="60" as="geometry" />
        </mxCell>
        <mxCell id="NS6Ue5GuABFmyDyCc9gB-54" value="" style="endArrow=classic;html=1;fontSize=11;fontColor=#000000;exitX=0.5;exitY=1;exitDx=0;exitDy=0;entryX=0.5;entryY=0;entryDx=0;entryDy=0;fillColor=#dae8fc;strokeColor=#6c8ebf;" parent="1" source="NS6Ue5GuABFmyDyCc9gB-52" target="NS6Ue5GuABFmyDyCc9gB-5" edge="1">
          <mxGeometry width="50" height="50" relative="1" as="geometry">
            <mxPoint x="360" y="300" as="sourcePoint" />
            <mxPoint x="410" y="250" as="targetPoint" />
          </mxGeometry>
        </mxCell>
        <mxCell id="NS6Ue5GuABFmyDyCc9gB-100" value="Download Moon images" style="edgeLabel;html=1;align=center;verticalAlign=middle;resizable=0;points=[];fontSize=11;fontColor=#000000;" parent="NS6Ue5GuABFmyDyCc9gB-54" vertex="1" connectable="0">
          <mxGeometry x="0.4" relative="1" as="geometry">
            <mxPoint as="offset" />
          </mxGeometry>
        </mxCell>
        <mxCell id="NS6Ue5GuABFmyDyCc9gB-56" value="Internet" style="text;html=1;strokeColor=none;fillColor=none;align=center;verticalAlign=middle;whiteSpace=wrap;rounded=0;fontSize=14;fontColor=#000000;fontStyle=1" parent="1" vertex="1">
          <mxGeometry x="200" y="20" width="40" height="20" as="geometry" />
        </mxCell>
        <mxCell id="NS6Ue5GuABFmyDyCc9gB-61" value="" style="endArrow=classic;html=1;fontSize=14;fontColor=#000000;exitX=1;exitY=0.75;exitDx=0;exitDy=0;entryX=0;entryY=0.75;entryDx=0;entryDy=0;fillColor=#dae8fc;strokeColor=#6c8ebf;" parent="1" source="NS6Ue5GuABFmyDyCc9gB-45" target="NS6Ue5GuABFmyDyCc9gB-65" edge="1">
          <mxGeometry width="50" height="50" relative="1" as="geometry">
            <mxPoint x="190" y="400" as="sourcePoint" />
            <mxPoint x="400" y="240" as="targetPoint" />
          </mxGeometry>
        </mxCell>
        <mxCell id="NS6Ue5GuABFmyDyCc9gB-62" value="&lt;font style=&quot;font-size: 11px&quot;&gt;Bootstrap Moon OKD App&lt;/font&gt;" style="edgeLabel;html=1;align=center;verticalAlign=middle;resizable=0;points=[];fontSize=14;fontColor=#000000;rotation=-3.6;" parent="NS6Ue5GuABFmyDyCc9gB-61" vertex="1" connectable="0">
          <mxGeometry x="0.3243" y="-2" relative="1" as="geometry">
            <mxPoint x="-41.5" y="-11.879999999999999" as="offset" />
          </mxGeometry>
        </mxCell>
        <mxCell id="NS6Ue5GuABFmyDyCc9gB-63" value="" style="endArrow=none;html=1;fontSize=14;fontColor=#000000;exitX=0;exitY=0.25;exitDx=0;exitDy=0;entryX=0.5;entryY=1;entryDx=0;entryDy=0;startArrow=classicThin;startFill=1;endFill=0;fillColor=#dae8fc;strokeColor=#6c8ebf;" parent="1" source="NS6Ue5GuABFmyDyCc9gB-65" target="NS6Ue5GuABFmyDyCc9gB-5" edge="1">
          <mxGeometry width="50" height="50" relative="1" as="geometry">
            <mxPoint x="350" y="290" as="sourcePoint" />
            <mxPoint x="400" y="240" as="targetPoint" />
          </mxGeometry>
        </mxCell>
        <mxCell id="NS6Ue5GuABFmyDyCc9gB-66" value="Download Moon Images" style="edgeLabel;html=1;align=center;verticalAlign=middle;resizable=0;points=[];fontSize=11;fontColor=#000000;rotation=33.2;" parent="NS6Ue5GuABFmyDyCc9gB-63" vertex="1" connectable="0">
          <mxGeometry x="-0.1103" relative="1" as="geometry">
            <mxPoint x="-8.64" y="3.6399999999999997" as="offset" />
          </mxGeometry>
        </mxCell>
        <mxCell id="NS6Ue5GuABFmyDyCc9gB-65" value="OKD REST API" style="rounded=0;whiteSpace=wrap;html=1;fontSize=14;fontColor=#000000;align=center;" parent="1" vertex="1">
          <mxGeometry x="437" y="320" width="72" height="80" as="geometry" />
        </mxCell>
        <mxCell id="NS6Ue5GuABFmyDyCc9gB-67" value="" style="endArrow=classic;html=1;fontSize=11;fontColor=#000000;exitX=0.75;exitY=0;exitDx=0;exitDy=0;entryX=0.5;entryY=1;entryDx=0;entryDy=0;fillColor=#dae8fc;strokeColor=#6c8ebf;" parent="1" source="NS6Ue5GuABFmyDyCc9gB-65" target="NS6Ue5GuABFmyDyCc9gB-8" edge="1">
          <mxGeometry width="50" height="50" relative="1" as="geometry">
            <mxPoint x="350" y="290" as="sourcePoint" />
            <mxPoint x="500" y="261" as="targetPoint" />
          </mxGeometry>
        </mxCell>
        <mxCell id="NS6Ue5GuABFmyDyCc9gB-70" value="Deploy moon app" style="edgeLabel;html=1;align=center;verticalAlign=middle;resizable=0;points=[];fontSize=11;fontColor=#000000;rotation=-87.4;" parent="NS6Ue5GuABFmyDyCc9gB-67" vertex="1" connectable="0">
          <mxGeometry x="-0.0997" y="-1" relative="1" as="geometry">
            <mxPoint x="-9.81" y="1.9299999999999997" as="offset" />
          </mxGeometry>
        </mxCell>
        <mxCell id="NS6Ue5GuABFmyDyCc9gB-71" value="" style="endArrow=classic;html=1;fontSize=11;fontColor=#000000;exitX=1;exitY=0.5;exitDx=0;exitDy=0;entryX=0.25;entryY=1;entryDx=0;entryDy=0;fillColor=#ffe6cc;strokeColor=#d79b00;" parent="1" source="NS6Ue5GuABFmyDyCc9gB-45" target="NS6Ue5GuABFmyDyCc9gB-8" edge="1">
          <mxGeometry width="50" height="50" relative="1" as="geometry">
            <mxPoint x="350" y="290" as="sourcePoint" />
            <mxPoint x="400" y="240" as="targetPoint" />
          </mxGeometry>
        </mxCell>
        <mxCell id="NS6Ue5GuABFmyDyCc9gB-72" value="Start autotests&lt;br&gt;RemoteWebDriver" style="edgeLabel;html=1;align=center;verticalAlign=middle;resizable=0;points=[];fontSize=11;fontColor=#000000;rotation=-30;" parent="NS6Ue5GuABFmyDyCc9gB-71" vertex="1" connectable="0">
          <mxGeometry x="-0.272" y="-3" relative="1" as="geometry">
            <mxPoint x="-20.12" y="7.98" as="offset" />
          </mxGeometry>
        </mxCell>
        <mxCell id="NS6Ue5GuABFmyDyCc9gB-73" value="" style="endArrow=classic;html=1;fontSize=11;fontColor=#000000;exitX=1;exitY=0.5;exitDx=0;exitDy=0;entryX=0.5;entryY=0;entryDx=0;entryDy=0;fillColor=#ffe6cc;strokeColor=#d79b00;" parent="1" source="NS6Ue5GuABFmyDyCc9gB-8" target="NS6Ue5GuABFmyDyCc9gB-10" edge="1">
          <mxGeometry width="50" height="50" relative="1" as="geometry">
            <mxPoint x="390" y="290" as="sourcePoint" />
            <mxPoint x="440" y="240" as="targetPoint" />
          </mxGeometry>
        </mxCell>
        <mxCell id="NS6Ue5GuABFmyDyCc9gB-74" value="" style="endArrow=classic;html=1;fontSize=11;fontColor=#000000;exitX=1;exitY=0.5;exitDx=0;exitDy=0;entryX=0.5;entryY=0;entryDx=0;entryDy=0;fillColor=#ffe6cc;strokeColor=#d79b00;" parent="1" source="NS6Ue5GuABFmyDyCc9gB-8" target="NS6Ue5GuABFmyDyCc9gB-11" edge="1">
          <mxGeometry width="50" height="50" relative="1" as="geometry">
            <mxPoint x="530" y="190" as="sourcePoint" />
            <mxPoint x="562" y="200" as="targetPoint" />
          </mxGeometry>
        </mxCell>
        <mxCell id="NS6Ue5GuABFmyDyCc9gB-75" value="" style="endArrow=classic;html=1;fontSize=11;fontColor=#000000;entryX=0.5;entryY=0;entryDx=0;entryDy=0;fillColor=#ffe6cc;strokeColor=#d79b00;" parent="1" target="NS6Ue5GuABFmyDyCc9gB-12" edge="1">
          <mxGeometry width="50" height="50" relative="1" as="geometry">
            <mxPoint x="520" y="180" as="sourcePoint" />
            <mxPoint x="622" y="200" as="targetPoint" />
          </mxGeometry>
        </mxCell>
        <mxCell id="NS6Ue5GuABFmyDyCc9gB-76" value="Create browser PODs" style="text;html=1;strokeColor=none;fillColor=none;align=center;verticalAlign=middle;whiteSpace=wrap;rounded=0;fontSize=10;fontColor=#000000;" parent="1" vertex="1">
          <mxGeometry x="538" y="166" width="110" height="20" as="geometry" />
        </mxCell>
        <mxCell id="NS6Ue5GuABFmyDyCc9gB-77" value="Application testing" style="text;html=1;strokeColor=none;fillColor=none;align=center;verticalAlign=middle;whiteSpace=wrap;rounded=0;fontSize=10;fontColor=#000000;" parent="1" vertex="1">
          <mxGeometry x="607" y="290" width="90" height="20" as="geometry" />
        </mxCell>
        <mxCell id="NS6Ue5GuABFmyDyCc9gB-78" value="" style="endArrow=classic;html=1;fontSize=10;fontColor=#000000;exitX=0;exitY=0.5;exitDx=0;exitDy=0;entryX=1;entryY=0.5;entryDx=0;entryDy=0;fillColor=#ffe6cc;strokeColor=#d79b00;" parent="1" source="NS6Ue5GuABFmyDyCc9gB-45" target="NS6Ue5GuABFmyDyCc9gB-38" edge="1">
          <mxGeometry width="50" height="50" relative="1" as="geometry">
            <mxPoint x="390" y="290" as="sourcePoint" />
            <mxPoint x="440" y="240" as="targetPoint" />
          </mxGeometry>
        </mxCell>
        <mxCell id="NS6Ue5GuABFmyDyCc9gB-81" value="Tests&lt;br&gt;results" style="edgeLabel;html=1;align=center;verticalAlign=middle;resizable=0;points=[];fontSize=10;fontColor=#000000;" parent="NS6Ue5GuABFmyDyCc9gB-78" vertex="1" connectable="0">
          <mxGeometry x="-0.113" y="-1" relative="1" as="geometry">
            <mxPoint x="1" as="offset" />
          </mxGeometry>
        </mxCell>
        <mxCell id="NS6Ue5GuABFmyDyCc9gB-82" value="Nexus DEV" style="text;html=1;strokeColor=none;fillColor=none;align=center;verticalAlign=middle;whiteSpace=wrap;rounded=0;labelBackgroundColor=none;fontSize=14;fontColor=#000000;fontStyle=1" parent="1" vertex="1">
          <mxGeometry x="268" y="205" width="100" height="20" as="geometry" />
        </mxCell>
        <mxCell id="NS6Ue5GuABFmyDyCc9gB-83" value="quay.io proxy repo" style="text;html=1;strokeColor=none;fillColor=none;align=center;verticalAlign=middle;whiteSpace=wrap;rounded=0;labelBackgroundColor=none;fontSize=11;fontColor=#000000;" parent="1" vertex="1">
          <mxGeometry x="265" y="240" width="100" height="20" as="geometry" />
        </mxCell>
        <mxCell id="NS6Ue5GuABFmyDyCc9gB-84" value="1" style="ellipse;whiteSpace=wrap;html=1;aspect=fixed;labelBackgroundColor=none;fontSize=11;align=center;fillColor=#dae8fc;strokeColor=#6c8ebf;" parent="1" vertex="1">
          <mxGeometry x="130" y="160" width="20" height="20" as="geometry" />
        </mxCell>
        <mxCell id="NS6Ue5GuABFmyDyCc9gB-85" value="2" style="ellipse;whiteSpace=wrap;html=1;aspect=fixed;labelBackgroundColor=none;fontSize=11;align=center;fillColor=#dae8fc;strokeColor=#6c8ebf;" parent="1" vertex="1">
          <mxGeometry x="167.5" y="270" width="20" height="20" as="geometry" />
        </mxCell>
        <mxCell id="NS6Ue5GuABFmyDyCc9gB-86" value="3" style="ellipse;whiteSpace=wrap;html=1;aspect=fixed;labelBackgroundColor=none;fontSize=11;align=center;fillColor=#dae8fc;strokeColor=#6c8ebf;" parent="1" vertex="1">
          <mxGeometry x="290" y="390" width="20" height="20" as="geometry" />
        </mxCell>
        <mxCell id="NS6Ue5GuABFmyDyCc9gB-87" value="4" style="ellipse;whiteSpace=wrap;html=1;aspect=fixed;labelBackgroundColor=none;fontSize=11;align=center;fillColor=#dae8fc;strokeColor=#6c8ebf;" parent="1" vertex="1">
          <mxGeometry x="320" y="146" width="20" height="20" as="geometry" />
        </mxCell>
        <mxCell id="NS6Ue5GuABFmyDyCc9gB-89" value="5" style="ellipse;whiteSpace=wrap;html=1;aspect=fixed;labelBackgroundColor=none;fontSize=11;align=center;fillColor=#dae8fc;strokeColor=#6c8ebf;" parent="1" vertex="1">
          <mxGeometry x="375" y="280" width="20" height="20" as="geometry" />
        </mxCell>
        <mxCell id="NS6Ue5GuABFmyDyCc9gB-90" value="6" style="ellipse;whiteSpace=wrap;html=1;aspect=fixed;labelBackgroundColor=none;fontSize=11;align=center;fillColor=#dae8fc;strokeColor=#6c8ebf;" parent="1" vertex="1">
          <mxGeometry x="497" y="270" width="20" height="20" as="geometry" />
        </mxCell>
        <mxCell id="NS6Ue5GuABFmyDyCc9gB-93" value="1" style="ellipse;whiteSpace=wrap;html=1;aspect=fixed;labelBackgroundColor=none;fontSize=11;align=center;fillColor=#ffe6cc;strokeColor=#d79b00;" parent="1" vertex="1">
          <mxGeometry x="200" y="340" width="20" height="20" as="geometry" />
        </mxCell>
        <mxCell id="NS6Ue5GuABFmyDyCc9gB-94" value="2" style="ellipse;whiteSpace=wrap;html=1;aspect=fixed;labelBackgroundColor=none;fontSize=11;align=center;fillColor=#ffe6cc;strokeColor=#d79b00;" parent="1" vertex="1">
          <mxGeometry x="648.5" y="166" width="20" height="20" as="geometry" />
        </mxCell>
        <mxCell id="NS6Ue5GuABFmyDyCc9gB-95" value="3" style="ellipse;whiteSpace=wrap;html=1;aspect=fixed;labelBackgroundColor=none;fontSize=11;align=center;fillColor=#ffe6cc;strokeColor=#d79b00;" parent="1" vertex="1">
          <mxGeometry x="577" y="290" width="20" height="20" as="geometry" />
        </mxCell>
        <mxCell id="NS6Ue5GuABFmyDyCc9gB-98" value="4" style="ellipse;whiteSpace=wrap;html=1;aspect=fixed;labelBackgroundColor=none;fontSize=11;align=center;fillColor=#ffe6cc;strokeColor=#d79b00;" parent="1" vertex="1">
          <mxGeometry x="742" y="135" width="20" height="20" as="geometry" />
        </mxCell>
        <mxCell id="NS6Ue5GuABFmyDyCc9gB-99" value="5" style="ellipse;whiteSpace=wrap;html=1;aspect=fixed;labelBackgroundColor=none;fontSize=11;align=center;fillColor=#ffe6cc;strokeColor=#d79b00;" parent="1" vertex="1">
          <mxGeometry x="80" y="400" width="20" height="20" as="geometry" />
        </mxCell>
      </root>
    </mxGraphModel>
  </diagram>
</mxfile>
